solid MESH-MESH-MESH-MESH-MESH-MESH-MESH-MESH-MESH-MESH-MESH-MESH-MESH-MESH-MESH-MESH

facet normal -1 0.000 0.000
outer loop
vertex 0 0 0
vertex 0 0 138
vertex 0 138 0
endloop
endfacet
facet normal -1 0.000 0.000
outer loop
vertex 0 138 0
vertex 0 0 138
vertex 0 138 138
endloop
endfacet
facet normal 1 0.000 0.000
outer loop
vertex 138 0 138
vertex 138 0 0
vertex 138 138 0
endloop
endfacet
facet normal 1 -0.000 0.000
outer loop
vertex 138 0 138
vertex 138 138 0
vertex 138 138 138
endloop
endfacet
facet normal 0 -1.000 0.000
outer loop
vertex 138 0 0
vertex 138 0 138
vertex 0 0 0
endloop
endfacet
facet normal 0 -1.000 0.000
outer loop
vertex 0 0 0
vertex 138 0 138
vertex 0 0 138
endloop
endfacet
facet normal 0 1.000 0.000
outer loop
vertex 138 138 138
vertex 138 138 0
vertex 0 138 0
endloop
endfacet
facet normal 0 1.000 0.000
outer loop
vertex 138 138 138
vertex 0 138 0
vertex 0 138 138
endloop
endfacet
facet normal 0 0.000 -1.000
outer loop
vertex 0 138 0
vertex 138 138 0
vertex 0 0 0
endloop
endfacet
facet normal 0 0.000 -1.000
outer loop
vertex 0 0 0
vertex 138 138 0
vertex 138 0 0
endloop
endfacet
facet normal 0 0.000 1.000
outer loop
vertex 138 138 138
vertex 0 138 138
vertex 0 0 138
endloop
endfacet
facet normal 0 0.000 1.000
outer loop
vertex 138 138 138
vertex 0 0 138
vertex 138 0 138
endloop
endfacet
endsolid MESH-MESH-MESH-MESH-MESH-MESH-MESH-MESH-MESH-MESH-MESH-MESH-MESH-MESH-MESH-MESH

